<svg width="300" xmlns="http://www.w3.org/2000/svg" height="70" id="screenshot-c0b0a2ff-e7fd-80e5-8005-a9a8df0e82cc" viewBox="0 0 300 70" xmlns:xlink="http://www.w3.org/1999/xlink" fill="none" version="1.1"><g xmlns:xlink="http://www.w3.org/1999/xlink" width="1" xml:space="preserve" height="1" id="shape-c0b0a2ff-e7fd-80e5-8005-a9a8df0e82cc" style="fill: rgb(0, 0, 0);" ry="0" rx="0" version="1.1"><g id="shape-c0b0a2ff-e7fd-80e5-8005-a9a8df0fb65b" style="display: none;"><g class="fills" id="fills-c0b0a2ff-e7fd-80e5-8005-a9a8df0fb65b"><rect width="300" height="70" x="0" transform="matrix(1.000000, 0.000000, 0.000000, 1.000000, 0.000000, 0.000000)" style="fill-rule: evenodd; clip-rule: evenodd; stroke-linejoin: round; stroke-miterlimit: 2; fill: none;" ry="0" fill="none" rx="0" y="0"/></g></g><g id="shape-c0b0a2ff-e7fd-80e5-8005-a9a8df0fda51"><g class="fills" id="fills-c0b0a2ff-e7fd-80e5-8005-a9a8df0fda51"><rect rx="0" ry="0" x="0" y="0" transform="matrix(1.000000, 0.000000, 0.000000, 1.000000, 0.000000, 0.000000)" width="300" height="70" style="fill-rule: evenodd; clip-rule: evenodd; stroke-linejoin: round; stroke-miterlimit: 2; fill: none;"/></g></g><g id="shape-c0b0a2ff-e7fd-80e5-8005-a9a8df0fda52" rx="0" ry="0" style="fill: rgb(0, 0, 0);"><g id="shape-c0b0a2ff-e7fd-80e5-8005-a9a8df10112e" rx="0" ry="0" style="fill: rgb(0, 0, 0);"><g id="shape-c0b0a2ff-e7fd-80e5-8005-a9a8df10cbd0"><g class="fills" id="fills-c0b0a2ff-e7fd-80e5-8005-a9a8df10cbd0"><path d="M135.746,31.470L128.331,31.470L128.331,24.914L125.419,24.914L125.419,41.474L128.331,41.474L128.331,34.248L135.746,34.248L135.746,41.474L138.657,41.474L138.657,24.914L135.746,24.914L135.746,31.470ZZ" style="fill-rule: nonzero; clip-rule: evenodd; stroke-linejoin: round; stroke-miterlimit: 2; fill: rgb(41, 37, 36);"/></g></g><g id="shape-c0b0a2ff-e7fd-80e5-8005-a9a8df114436"><g class="fills" id="fills-c0b0a2ff-e7fd-80e5-8005-a9a8df114436"><path d="M166.300,33.194C166.300,34.006,166.166,34.783,165.900,35.503C165.636,36.218,165.257,36.847,164.774,37.371C164.291,37.895,163.702,38.319,163.023,38.632C161.674,39.251,159.786,39.251,158.439,38.632C157.759,38.319,157.170,37.896,156.687,37.371C156.203,36.847,155.825,36.218,155.561,35.503C155.296,34.784,155.161,34.007,155.161,33.194C155.161,32.381,155.296,31.604,155.561,30.885C155.825,30.170,156.203,29.542,156.687,29.017C157.172,28.491,157.760,28.067,158.439,27.756C159.112,27.447,159.884,27.290,160.730,27.290C161.577,27.290,162.348,27.447,163.023,27.757C163.701,28.067,164.289,28.491,164.774,29.017C165.257,29.542,165.636,30.170,165.900,30.885C166.166,31.605,166.300,32.382,166.300,33.194ZM166.929,39.372C167.682,38.596,168.279,37.669,168.704,36.616C169.130,35.564,169.346,34.412,169.346,33.194C169.346,31.976,169.130,30.824,168.704,29.771C168.279,28.719,167.682,27.792,166.929,27.015C166.175,26.238,165.257,25.619,164.203,25.178C162.096,24.294,159.365,24.295,157.259,25.178C156.204,25.619,155.287,26.238,154.533,27.015C153.780,27.792,153.182,28.719,152.757,29.771C152.331,30.823,152.116,31.975,152.116,33.194C152.116,34.413,152.331,35.565,152.757,36.616C153.182,37.669,153.780,38.596,154.532,39.372C155.285,40.149,156.202,40.767,157.259,41.210C158.312,41.652,159.481,41.876,160.730,41.876C161.980,41.876,163.149,41.652,164.203,41.210C165.258,40.767,166.176,40.149,166.929,39.372Z" style="fill-rule: nonzero; clip-rule: evenodd; stroke-linejoin: round; stroke-miterlimit: 2; fill: rgb(41, 37, 36);"/></g></g><g id="shape-c0b0a2ff-e7fd-80e5-8005-a9a8df11b805"><g class="fills" id="fills-c0b0a2ff-e7fd-80e5-8005-a9a8df11b805"><path d="M185.716,27.557L188.141,27.557C188.536,27.557,188.931,27.589,189.316,27.653C189.679,27.713,190.005,27.821,190.283,27.977C190.543,28.122,190.747,28.327,190.907,28.603C191.065,28.877,191.145,29.251,191.145,29.715C191.145,30.179,191.065,30.553,190.907,30.826C190.747,31.103,190.543,31.307,190.283,31.452C190.005,31.608,189.679,31.717,189.316,31.777C188.931,31.840,188.536,31.872,188.141,31.872L185.716,31.872L185.716,27.557ZZM191.724,33.745C192.246,33.464,192.695,33.113,193.057,32.702C193.421,32.289,193.704,31.823,193.898,31.313C194.092,30.802,194.191,30.265,194.191,29.715C194.191,29.193,194.111,28.644,193.953,28.082C193.790,27.500,193.495,26.970,193.078,26.503C192.662,26.038,192.095,25.652,191.390,25.356C190.690,25.063,189.800,24.914,188.743,24.914L182.803,24.914L182.803,41.474L185.716,41.474L185.716,34.515L187.494,34.515L191.509,41.474L195.101,41.474L190.558,34.174C190.974,34.082,191.366,33.939,191.724,33.745Z" style="fill-rule: nonzero; clip-rule: evenodd; stroke-linejoin: round; stroke-miterlimit: 2; fill: rgb(41, 37, 36);"/></g></g><g id="shape-c0b0a2ff-e7fd-80e5-8005-a9a8df11eba2"><g class="fills" id="fills-c0b0a2ff-e7fd-80e5-8005-a9a8df11eba2"><rect rx="0" ry="0" x="207.582" y="24.913999999999987" transform="matrix(1.000000, 0.000000, 0.000000, 1.000000, 0.000000, 0.000000)" width="2.9120000000000346" height="16.560000000000002" style="fill-rule: evenodd; clip-rule: evenodd; stroke-linejoin: round; stroke-miterlimit: 2; fill: rgb(41, 37, 36);"/></g></g><g id="shape-c0b0a2ff-e7fd-80e5-8005-a9a8df11eba3"><g class="fills" id="fills-c0b0a2ff-e7fd-80e5-8005-a9a8df11eba3"><path d="M236.187,38.697L227.501,38.697L236.053,27.436L236.053,24.914L223.885,24.914L223.885,27.692L232.213,27.692L223.619,38.952L223.619,41.475L236.187,41.475L236.187,38.697ZZ" style="fill-rule: nonzero; clip-rule: evenodd; stroke-linejoin: round; stroke-miterlimit: 2; fill: rgb(41, 37, 36);"/></g></g><g id="shape-c0b0a2ff-e7fd-80e5-8005-a9a8df1222ca"><g class="fills" id="fills-c0b0a2ff-e7fd-80e5-8005-a9a8df1222ca"><path d="M262.514,33.194C262.514,34.006,262.379,34.783,262.114,35.503C261.850,36.218,261.471,36.847,260.988,37.371C260.504,37.895,259.916,38.319,259.236,38.632C257.887,39.251,256.000,39.251,254.652,38.632C253.973,38.319,253.384,37.896,252.901,37.371C252.418,36.847,252.039,36.218,251.775,35.503C251.509,34.784,251.375,34.007,251.375,33.194C251.375,32.381,251.509,31.604,251.775,30.885C252.039,30.170,252.418,29.542,252.901,29.017C253.385,28.491,253.975,28.067,254.652,27.756C255.326,27.447,256.097,27.290,256.945,27.290C257.790,27.290,258.563,27.447,259.237,27.757C259.915,28.067,260.503,28.491,260.988,29.017C261.471,29.542,261.850,30.170,262.114,30.885C262.379,31.605,262.514,32.382,262.514,33.194ZM263.142,27.015C262.388,26.238,261.471,25.619,260.416,25.178C258.309,24.294,255.578,24.295,253.472,25.178C252.418,25.619,251.500,26.238,250.747,27.015C249.994,27.792,249.396,28.719,248.971,29.771C248.545,30.823,248.329,31.975,248.329,33.194C248.329,34.413,248.545,35.565,248.971,36.616C249.396,37.669,249.994,38.596,250.747,39.372C251.499,40.149,252.416,40.767,253.472,41.210C254.527,41.652,255.695,41.876,256.945,41.876C258.194,41.876,259.362,41.652,260.416,41.210C261.473,40.767,262.390,40.149,263.142,39.372C263.895,38.596,264.492,37.669,264.918,36.616C265.344,35.564,265.559,34.412,265.559,33.194C265.559,31.976,265.344,30.824,264.918,29.771C264.492,28.719,263.895,27.792,263.142,27.015Z" style="fill-rule: nonzero; clip-rule: evenodd; stroke-linejoin: round; stroke-miterlimit: 2; fill: rgb(41, 37, 36);"/></g></g><g id="shape-c0b0a2ff-e7fd-80e5-8005-a9a8df1242d8"><g class="fills" id="fills-c0b0a2ff-e7fd-80e5-8005-a9a8df1242d8"><path d="M290.571,24.914L290.571,37.079L282.419,24.914L279.018,24.914L279.018,41.474L281.929,41.474L281.929,29.300L290.171,41.474L293.482,41.474L293.482,24.914L290.571,24.914ZZ" style="fill-rule: nonzero; clip-rule: evenodd; stroke-linejoin: round; stroke-miterlimit: 2; fill: rgb(41, 37, 36);"/></g></g><g id="shape-c0b0a2ff-e7fd-80e5-8005-a9a8df129f71"><g class="fills" id="fills-c0b0a2ff-e7fd-80e5-8005-a9a8df129f71"><path d="M169.659,59.103C169.358,59.484,168.999,59.780,168.595,59.983C168.191,60.184,167.725,60.287,167.207,60.287C166.731,60.287,166.290,60.195,165.897,60.012C165.504,59.829,165.163,59.578,164.882,59.264C164.598,58.951,164.375,58.576,164.216,58.150C164.056,57.722,163.975,57.255,163.975,56.759C163.975,56.296,164.056,55.845,164.216,55.417C164.375,54.991,164.601,54.612,164.887,54.289C165.173,53.968,165.518,53.708,165.912,53.517C166.303,53.327,166.739,53.231,167.207,53.231C167.610,53.231,168.003,53.317,168.376,53.487C168.745,53.656,169.060,53.913,169.312,54.252L169.369,54.329L170.426,53.561L170.366,53.482C169.987,52.986,169.510,52.623,168.951,52.404C168.396,52.186,167.809,52.076,167.207,52.076C166.548,52.076,165.933,52.199,165.381,52.441C164.828,52.684,164.346,53.019,163.944,53.438C163.543,53.855,163.228,54.356,163.006,54.923C162.785,55.492,162.672,56.109,162.672,56.759C162.672,57.433,162.789,58.065,163.018,58.632C163.248,59.199,163.570,59.697,163.976,60.112C164.382,60.526,164.867,60.855,165.419,61.089C165.971,61.323,166.572,61.442,167.207,61.442C167.916,61.442,168.562,61.314,169.127,61.064C169.694,60.811,170.186,60.411,170.588,59.874L170.643,59.802L169.721,59.024L169.659,59.103ZZ" style="fill-rule: nonzero; clip-rule: evenodd; stroke-linejoin: round; stroke-miterlimit: 2; fill: rgb(41, 37, 36);"/></g></g><g id="shape-c0b0a2ff-e7fd-80e5-8005-a9a8df129f72"><g class="fills" id="fills-c0b0a2ff-e7fd-80e5-8005-a9a8df129f72"><path d="M186.183,55.997L181.715,55.997L181.715,52.298L180.488,52.298L180.488,61.220L181.715,61.220L181.715,57.152L186.183,57.152L186.183,61.220L187.412,61.220L187.412,52.298L186.183,52.298L186.183,55.997ZZ" style="fill-rule: nonzero; clip-rule: evenodd; stroke-linejoin: round; stroke-miterlimit: 2; fill: rgb(41, 37, 36);"/></g></g><g id="shape-c0b0a2ff-e7fd-80e5-8005-a9a8df12f86d"><g class="fills" id="fills-c0b0a2ff-e7fd-80e5-8005-a9a8df12f86d"><path d="M203.529,57.646C203.529,57.991,203.492,58.329,203.421,58.648C203.349,58.965,203.229,59.248,203.065,59.491C202.902,59.732,202.681,59.926,202.409,60.070C202.137,60.214,201.787,60.287,201.369,60.287C200.951,60.287,200.601,60.214,200.329,60.070C200.057,59.927,199.837,59.732,199.674,59.491C199.508,59.249,199.389,58.965,199.318,58.648C199.245,58.329,199.210,57.991,199.210,57.646L199.210,52.298L197.981,52.298L197.981,57.794C197.981,58.278,198.042,58.743,198.164,59.176C198.285,59.614,198.482,60.004,198.748,60.339C199.015,60.674,199.370,60.945,199.800,61.143C200.230,61.340,200.759,61.442,201.369,61.442C201.980,61.442,202.507,61.340,202.938,61.143C203.369,60.945,203.723,60.673,203.990,60.339C204.256,60.005,204.453,59.615,204.575,59.176C204.696,58.743,204.757,58.278,204.757,57.794L204.757,52.298L203.529,52.298L203.529,57.646ZZ" style="fill-rule: nonzero; clip-rule: evenodd; stroke-linejoin: round; stroke-miterlimit: 2; fill: rgb(41, 37, 36);"/></g></g><g id="shape-c0b0a2ff-e7fd-80e5-8005-a9a8df12f86e"><g class="fills" id="fills-c0b0a2ff-e7fd-80e5-8005-a9a8df12f86e"><path d="M219.926,54.799C219.926,55.134,219.849,55.393,219.697,55.567C219.540,55.747,219.339,55.881,219.097,55.965C218.847,56.052,218.570,56.105,218.273,56.121C217.963,56.136,217.663,56.145,217.384,56.145L216.556,56.145L216.556,53.452L217.915,53.452C218.166,53.452,218.416,53.470,218.660,53.502C218.899,53.533,219.118,53.598,219.306,53.694C219.492,53.789,219.644,53.925,219.757,54.099C219.869,54.272,219.926,54.507,219.926,54.799ZM220.622,56.419C221.024,56.009,221.229,55.463,221.229,54.799C221.229,54.240,221.119,53.790,220.905,53.457C220.690,53.129,220.408,52.874,220.065,52.703C219.728,52.534,219.342,52.423,218.919,52.374C218.501,52.323,218.076,52.298,217.655,52.298L215.327,52.298L215.327,61.220L216.556,61.220L216.556,57.299L217.737,57.299L220.076,61.173L220.104,61.220L221.600,61.220L219.106,57.174C219.740,57.054,220.249,56.799,220.622,56.419Z" style="fill-rule: nonzero; clip-rule: evenodd; stroke-linejoin: round; stroke-miterlimit: 2; fill: rgb(41, 37, 36);"/></g></g><g id="shape-c0b0a2ff-e7fd-80e5-8005-a9a8df133a46"><g class="fills" id="fills-c0b0a2ff-e7fd-80e5-8005-a9a8df133a46"><path d="M237.971,59.103C237.669,59.484,237.311,59.780,236.906,59.983C236.503,60.184,236.037,60.287,235.519,60.287C235.042,60.287,234.602,60.195,234.209,60.012C233.816,59.829,233.474,59.578,233.194,59.264C232.910,58.951,232.687,58.576,232.527,58.150C232.368,57.722,232.287,57.255,232.287,56.759C232.287,56.296,232.368,55.845,232.527,55.417C232.687,54.991,232.913,54.612,233.199,54.289C233.485,53.968,233.830,53.708,234.224,53.517C234.615,53.327,235.051,53.231,235.519,53.231C235.922,53.231,236.315,53.317,236.688,53.487C237.057,53.656,237.372,53.913,237.624,54.252L237.681,54.329L238.737,53.561L238.678,53.482C238.299,52.986,237.822,52.623,237.263,52.404C236.708,52.186,236.121,52.076,235.519,52.076C234.860,52.076,234.245,52.199,233.693,52.441C233.140,52.684,232.658,53.019,232.256,53.438C231.855,53.855,231.540,54.356,231.318,54.923C231.096,55.492,230.984,56.109,230.984,56.759C230.984,57.433,231.101,58.065,231.330,58.632C231.560,59.199,231.882,59.697,232.288,60.112C232.694,60.526,233.179,60.855,233.731,61.089C234.282,61.323,234.884,61.442,235.519,61.442C236.228,61.442,236.874,61.314,237.438,61.064C238.006,60.811,238.498,60.411,238.900,59.874L238.955,59.802L237.971,59.103ZL237.971,59.103ZZ" style="fill-rule: nonzero; clip-rule: evenodd; stroke-linejoin: round; stroke-miterlimit: 2; fill: rgb(41, 37, 36);"/></g></g><g id="shape-c0b0a2ff-e7fd-80e5-8005-a9a8df133a47"><g class="fills" id="fills-c0b0a2ff-e7fd-80e5-8005-a9a8df133a47"><path d="M254.494,55.997L250.027,55.997L250.027,52.298L248.799,52.298L248.799,61.220L250.027,61.220L250.027,57.152L254.494,57.152L254.494,61.220L255.723,61.220L255.723,52.298L254.494,52.298L254.494,55.997ZZ" style="fill-rule: nonzero; clip-rule: evenodd; stroke-linejoin: round; stroke-miterlimit: 2; fill: rgb(41, 37, 36);"/></g></g><g id="shape-c0b0a2ff-e7fd-80e5-8005-a9a8df13629c"><g class="fills" id="fills-c0b0a2ff-e7fd-80e5-8005-a9a8df13629c"><path d="M83.211,56.821C83.965,57.025,84.618,57.227,85.205,57.408C87.920,58.251,88.738,58.504,92.190,56.266C93.174,55.626,94.048,55.100,94.864,54.659C95.879,54.108,96.911,53.653,97.912,53.312C96.169,50.243,92.044,44.506,88.563,41.111L78.572,56.224C78.871,56.170,79.175,56.143,79.496,56.143C80.465,56.143,81.591,56.383,83.211,56.821Z" style="fill-rule: nonzero; clip-rule: evenodd; stroke-linejoin: round; stroke-miterlimit: 2; fill: rgb(41, 37, 36);"/></g></g><g id="shape-c0b0a2ff-e7fd-80e5-8005-a9a8df13629d"><g class="fills" id="fills-c0b0a2ff-e7fd-80e5-8005-a9a8df13629d"><path d="M59.226,63.866C60.284,63.922,61.357,63.872,62.436,63.724L73.925,36.804C70.867,34.953,68.002,33.672,64.509,32.596L59.226,63.866ZZ" style="fill-rule: nonzero; clip-rule: evenodd; stroke-linejoin: round; stroke-miterlimit: 2; fill: rgb(41, 37, 36);"/></g></g><g id="shape-c0b0a2ff-e7fd-80e5-8005-a9a8df13629e"><g class="fills" id="fills-c0b0a2ff-e7fd-80e5-8005-a9a8df13629e"><path d="M41.282,25.058L48.260,59.337C49.351,60.226,50.471,60.990,51.611,61.623L52.602,23.304C49.192,23.440,45.123,24.069,41.282,25.058Z" style="fill-rule: nonzero; clip-rule: evenodd; stroke-linejoin: round; stroke-miterlimit: 2; fill: rgb(41, 37, 36);"/></g></g><g id="shape-c0b0a2ff-e7fd-80e5-8005-a9a8df13629f"><g class="fills" id="fills-c0b0a2ff-e7fd-80e5-8005-a9a8df13629f"><path d="M19.323,41.047L24.584,48.376C26.278,47.974,27.738,48.397,28.933,49.646C29.495,50.232,30.015,50.863,30.518,51.473C32.364,53.714,33.301,54.641,34.538,54.136L35.208,53.855C35.572,53.703,35.926,53.554,36.273,53.416L28.105,33.230C24.615,35.573,21.957,37.943,19.323,41.047Z" style="fill-rule: nonzero; clip-rule: evenodd; stroke-linejoin: round; stroke-miterlimit: 2; fill: rgb(41, 37, 36);"/></g></g><g id="shape-c0b0a2ff-e7fd-80e5-8005-a9a8df138149"><g class="fills" id="fills-c0b0a2ff-e7fd-80e5-8005-a9a8df138149"><path d="M65.574,63.019C67.777,62.503,71.719,60.260,73.731,58.815L92.910,29.804C90.130,26.533,86.938,23.668,83.396,21.259L65.574,63.019ZZ" style="fill-rule: nonzero; clip-rule: evenodd; stroke-linejoin: round; stroke-miterlimit: 2; fill: rgb(41, 37, 36);"/></g></g><g id="shape-c0b0a2ff-e7fd-80e5-8005-a9a8df13814a"><g class="fills" id="fills-c0b0a2ff-e7fd-80e5-8005-a9a8df13814a"><path d="M6.518,50.456L12.423,55.832C15.645,53.678,18.142,51.848,22.126,49.426L13.506,37.422C10.497,41.389,8.151,45.762,6.518,50.456Z" style="fill-rule: nonzero; clip-rule: evenodd; stroke-linejoin: round; stroke-miterlimit: 2; fill: rgb(41, 37, 36);"/></g></g><g id="shape-c0b0a2ff-e7fd-80e5-8005-a9a8df13814b"><g class="fills" id="fills-c0b0a2ff-e7fd-80e5-8005-a9a8df13814b"><path d="M55.657,6.111L54.190,62.817C54.995,63.116,55.814,63.355,56.636,63.529L66.093,7.551C62.689,6.687,59.189,6.205,55.657,6.111Z" style="fill-rule: nonzero; clip-rule: evenodd; stroke-linejoin: round; stroke-miterlimit: 2; fill: rgb(41, 37, 36);"/></g></g><g id="shape-c0b0a2ff-e7fd-80e5-8005-a9a8df13814c"><g class="fills" id="fills-c0b0a2ff-e7fd-80e5-8005-a9a8df13814c"><path d="M27.207,24.050L38.782,52.656C40.096,52.449,41.867,52.610,43.309,54.097C43.484,54.277,44.510,55.683,44.952,56.171L37.473,19.431C33.883,20.553,30.440,22.103,27.207,24.050Z" style="fill-rule: nonzero; clip-rule: evenodd; stroke-linejoin: round; stroke-miterlimit: 2; fill: rgb(41, 37, 36);"/></g></g></g></g></g></svg>